<svg width="57" height="72" viewBox="0 0 57 72" fill="none" xmlns="http://www.w3.org/2000/svg">
<path opacity="0.4" d="M56.256 53.2763V71.1323H2.688V53.2763H20.296V21.6563C19.552 22.6483 18.3947 23.6403 16.824 24.6323C15.2533 25.6243 13.476 26.575 11.492 27.4843C9.59067 28.3937 7.648 29.1377 5.664 29.7163C3.68 30.2123 1.86133 30.4603 0.208 30.4603V12.1083C1.61333 12.1083 3.34933 11.695 5.416 10.8683C7.48267 9.95899 9.54933 8.84299 11.616 7.52032C13.7653 6.19765 15.6253 4.87499 17.196 3.55232C18.8493 2.22965 19.8827 1.15499 20.296 0.328319H40.508V53.2763H56.256Z" fill="#777777"/>
</svg>
