<svg width="63" height="73" viewBox="0 0 63 73" fill="none" xmlns="http://www.w3.org/2000/svg">
<path opacity="0.4" d="M0.34 72.1323C0.34 68.247 0.629333 64.775 1.208 61.7163C1.86933 58.6577 2.90267 55.8883 4.308 53.4083C5.796 50.8457 7.73867 48.4897 10.136 46.3403C12.616 44.1083 15.716 42.0003 19.436 40.0163C23.3213 37.9497 26.5453 36.2137 29.108 34.8083C31.7533 33.3203 33.8613 32.0803 35.432 31.0883C37.0027 30.0963 38.0773 29.1457 38.656 28.2363C39.3173 27.2443 39.648 26.1697 39.648 25.0123C39.648 23.4417 39.276 22.0777 38.532 20.9203C37.788 19.763 36.7133 18.895 35.308 18.3163C33.9027 17.655 32.1667 17.3243 30.1 17.3243C28.4467 17.3243 26.876 17.531 25.388 17.9443C23.9 18.3577 22.4533 18.9777 21.048 19.8043C19.7253 20.631 18.444 21.623 17.204 22.7803C15.964 23.855 14.724 25.095 13.484 26.5003L0.96 11.8683C2.36533 10.463 4.14267 9.05765 6.292 7.65232C8.524 6.24699 11.0453 5.00699 13.856 3.93232C16.6667 2.77499 19.7253 1.86566 23.032 1.20432C26.4213 0.460321 29.9347 0.0883205 33.572 0.0883205C39.524 0.0883205 44.5253 0.997654 48.576 2.81632C52.7093 4.55232 55.8507 7.03232 58 10.2563C60.1493 13.4803 61.224 17.283 61.224 21.6643C61.224 24.475 60.7693 26.955 59.86 29.1043C59.0333 31.171 57.9173 33.031 56.512 34.6843C55.1067 36.3377 53.4947 37.8257 51.676 39.1483C49.94 40.471 48.204 41.6697 46.468 42.7443C44.484 43.7363 42.624 44.7283 40.888 45.7203C39.152 46.6297 37.54 47.539 36.052 48.4483C34.564 49.275 33.1587 50.1843 31.836 51.1763C30.596 52.0857 29.3973 53.119 28.24 54.2763H62.588V72.1323H0.34Z" fill="#777777"/>
</svg>
