<svg width="65" height="90" viewBox="0 0 65 90" fill="none" xmlns="http://www.w3.org/2000/svg">
<path opacity="0.4" d="M46.732 42.2443C50.204 42.823 53.2213 44.187 55.784 46.3363C58.4293 48.403 60.4547 51.007 61.86 54.1483C63.348 57.207 64.092 60.679 64.092 64.5643C64.092 69.6897 62.728 74.1537 60 77.9563C57.272 81.759 53.3867 84.6937 48.344 86.7603C43.3013 88.827 37.3493 89.8603 30.488 89.8603C24.2053 89.8603 18.584 88.9097 13.624 87.0083C8.74667 85.1897 4.53067 82.4617 0.976 78.8243L11.64 64.6883C13.872 66.9203 16.4347 68.6563 19.328 69.8963C22.2213 71.1363 25.6107 71.7563 29.496 71.7563C34.208 71.7563 37.7213 70.9297 40.036 69.2763C42.3507 67.5403 43.508 64.9363 43.508 61.4643C43.508 57.7443 42.1027 54.9337 39.292 53.0323C36.564 51.131 32.224 50.1803 26.272 50.1803H22.552V35.9203H26.644C31.1907 35.9203 34.7867 34.9697 37.432 33.0683C40.0773 31.0843 41.4 28.563 41.4 25.5043C41.4 23.6857 40.9453 22.1563 40.036 20.9163C39.2093 19.6763 38.0107 18.767 36.44 18.1883C34.952 17.527 33.1333 17.1963 30.984 17.1963C27.6773 17.1963 24.6187 17.9817 21.808 19.5523C18.9973 21.123 16.6413 23.4377 14.74 26.4963L2.216 12.1123C4.03467 9.71499 6.51467 7.64832 9.656 5.91232C12.88 4.09365 16.5173 2.68832 20.568 1.69632C24.6187 0.704321 28.8347 0.20832 33.216 0.20832C39.0853 0.20832 44.2107 1.11765 48.592 2.93632C53.056 4.75499 56.4867 7.31766 58.884 10.6243C61.364 13.8483 62.604 17.6923 62.604 22.1563C62.604 25.3803 61.9427 28.439 60.62 31.3323C59.2973 34.143 57.4373 36.5403 55.04 38.5243C52.6427 40.4257 49.8733 41.6657 46.732 42.2443Z" fill="#777777"/>
</svg>
