<svg width="121" height="49" viewBox="0 0 121 49" fill="none" xmlns="http://www.w3.org/2000/svg">
<path d="M39.8993 21.9209C39.8993 19.8737 37.9142 17.702 34.4726 17.702C30.6062 17.702 26.3654 20.5325 25.709 26.1885C25.0466 31.9068 28.6067 34.4336 32.1838 34.4336C35.7597 34.4336 37.6422 33.0402 39.554 31.1724C37.9033 29.0934 35.7743 30.0609 35.3717 30.2635C34.9264 30.4867 34.342 30.7954 33.1549 30.7954C31.769 30.7954 30.3635 30.1683 30.3635 27.5952C39.2234 26.7461 39.8993 23.9693 39.8993 21.9209ZM35.5084 22.2637C35.451 22.8944 35.1923 23.9864 30.7088 24.5867C31.6543 21.2291 33.4575 20.9802 34.2908 20.9802C35.0716 20.9802 35.5694 21.5853 35.5084 22.2637ZM20.5019 22.809C20.5019 22.809 18.5963 28.7848 18.4486 29.2862C18.3974 28.7848 17.0029 18.0509 17.0029 18.0509C13.7576 18.0509 12.0215 20.3568 11.1065 22.8066C11.1065 22.8066 8.78835 28.7994 8.60048 29.3009C8.58953 28.8311 8.24423 22.8689 8.24423 22.8689C8.0478 19.8724 5.31251 18.0582 3.0957 18.0582L5.76148 34.3201C9.16658 34.3091 10.9893 32.0069 11.9507 29.5619C11.9507 29.5619 13.9894 24.2743 14.0736 24.034C14.0943 24.2633 15.5401 34.3201 15.5401 34.3201C18.9476 34.3201 20.7862 32.1643 21.7757 29.8072L26.557 18.0582C23.1897 18.0582 21.4169 20.358 20.5019 22.809ZM52.4144 17.68C50.3196 17.68 48.7055 18.8183 47.3464 20.5007L47.3488 20.4885L48.5567 10.7173C45.7676 10.7173 43.4886 13.1452 43.0555 16.7467L40.9339 34.1932C42.5431 34.1932 44.2475 33.7259 45.1673 32.5437C45.9909 33.6014 47.2146 34.4445 49.0263 34.4445C53.7296 34.4445 56.9627 28.9775 56.9627 23.8448C56.9627 19.1612 54.6836 17.68 52.4144 17.68ZM51.9825 26.0617C51.4945 28.9312 49.8999 30.8661 48.3553 30.8661C46.7986 30.8661 46.141 30.1781 46.141 30.1781C46.4313 27.6697 46.6241 26.1312 47.1914 24.8063C47.7575 23.4813 49.0959 21.367 50.4965 21.367C51.858 21.367 52.4705 23.1934 51.9825 26.0617ZM68.7531 18.0595H65.4602L65.4761 17.8874C65.7005 15.7377 66.2154 14.6092 67.882 14.4359C69.0202 14.3189 69.5351 13.7271 69.6547 13.0878C69.7486 12.5864 70.067 10.8137 70.067 10.8137C63.4618 10.7759 61.3914 13.6271 60.8631 17.9606L60.8509 18.0582L60.7862 18.0607C59.7138 18.0607 58.5365 19.2746 58.3303 20.8167L58.2584 21.384H60.4544L58.6109 36.6455L58.0522 39.3881L58.2791 39.3954C61.3621 39.2783 63.3459 36.8468 63.7839 33.3062L65.2235 21.384H66.2557C67.2659 21.384 68.4529 20.3714 68.6726 18.6792L68.7531 18.0595ZM85.841 17.7764C82.0467 17.7764 78.4707 20.5691 77.3712 24.9624C76.2732 29.3546 77.9427 34.5409 83.519 34.5409C89.0975 34.5409 92.3022 29.1349 92.3022 24.6464C92.3022 20.1554 89.267 17.7764 85.841 17.7764ZM87.3792 25.9311C87.1827 27.9234 86.3045 30.9332 83.9037 30.9332C81.4925 30.9332 81.8352 27.4013 82.0685 25.7249C82.319 23.9278 83.3285 21.384 85.4772 21.384C87.4182 21.384 87.6012 23.6813 87.3792 25.9311ZM111.039 22.809C111.039 22.809 109.134 28.7848 108.987 29.2862C108.935 28.7848 107.541 18.0509 107.541 18.0509C104.295 18.0509 102.56 20.3568 101.644 22.8066C101.644 22.8066 99.3275 28.7994 99.1392 29.3009C99.128 28.8311 98.7829 22.8689 98.7829 22.8689C98.5864 19.8724 95.8497 18.0582 93.6342 18.0582L96.299 34.3201C99.7039 34.3091 101.528 32.0069 102.489 29.5619C102.489 29.5619 104.528 24.2743 104.612 24.034C104.633 24.2633 106.077 34.3201 106.077 34.3201C109.485 34.3201 111.324 32.1643 112.313 29.8072L117.096 18.0582C113.727 18.0582 111.954 20.358 111.039 22.809ZM71.852 10.8137L69.0874 33.111L69.08 33.1073L68.5188 35.8646L68.7446 35.8719C71.7214 35.8353 73.8333 33.2233 74.231 29.9291L75.8277 17.131C76.3122 13.233 73.9883 10.8137 71.852 10.8137Z" fill="black"/>
</svg>
