<svg width="30" height="24" viewBox="0 0 30 24" fill="none" xmlns="http://www.w3.org/2000/svg">
<path id="Vector" d="M0.300003 21.0004V21V3C0.300003 2.25528 0.561893 1.62488 1.09413 1.09263C1.62637 0.560403 2.25615 0.2991 2.99964 0.300003H3H27C27.7447 0.300003 28.3751 0.561892 28.9074 1.09413C29.4396 1.62636 29.7009 2.25615 29.7 2.99964V3V21C29.7 21.7447 29.4381 22.3751 28.9059 22.9074C28.3736 23.4396 27.7439 23.7009 27.0004 23.7H27H3C2.25528 23.7 1.62488 23.4381 1.09263 22.9059C0.560403 22.3736 0.2991 21.7439 0.300003 21.0004ZM2.7 21V21.3H3H27H27.3V21V3V2.7H27H3H2.7V3V21ZM25.2 10.8V19.2H12.3V10.8H25.2Z" fill="#4D61F4" stroke="white" stroke-width="0.6"/>
</svg>
