<svg width="91" height="91" viewBox="0 0 91 91" fill="none" xmlns="http://www.w3.org/2000/svg">
<g clip-path="url(#clip0_222_4755)">
<path d="M13.0376 39.0225L13.0347 43.0021L18.9589 43.0007V39.0239L13.0362 39.0239L13.0376 39.0225ZM39.0237 13.0363L39.0223 18.9605L43.0005 18.959L43.0019 13.0377L39.0237 13.0363ZM26.9124 26.9126C26.4514 27.3849 26.0059 27.8841 25.5887 28.4173C25.5746 28.4314 25.5576 28.4428 25.5463 28.4597C20.4678 34.8534 20.5371 44.0528 25.4544 50.5568C29.417 55.7866 35.4797 58.0592 41.3218 57.5855C43.716 57.3961 46.1026 58.0352 48.0818 59.3957L56.5671 67.8809L59.7915 64.6565C61.1279 65.0087 62.5959 64.6806 63.6381 63.6383C64.6804 62.596 65.0085 61.1281 64.6564 59.7916L67.8808 56.5672L62.2239 50.9104L62.3569 50.7774L60.6768 49.0974C58.6035 47.0241 57.5909 43.8563 57.7168 40.4805C57.714 35.7938 56.1513 30.6956 52.3258 26.8702C45.3396 19.8839 33.8251 19.8698 26.9124 26.9126ZM29.7408 29.741C35.1304 24.1987 44.0385 24.2397 49.4974 29.6986C52.4588 32.6599 53.6948 36.6395 53.6934 40.4367H53.7839C53.6369 44.0646 54.7614 47.63 56.963 50.5172L50.7773 56.703C48.0422 54.5902 44.6566 53.2834 41.0093 53.5648C36.3891 53.9424 31.7038 52.2355 28.5925 48.1286C24.7557 43.0558 24.7883 35.8589 28.7269 30.9388C29.0416 30.5222 29.3796 30.1237 29.7394 29.7453L29.7408 29.741ZM19.7989 59.3971L22.6273 62.2255L26.87 57.9829L24.0416 55.1544L19.7989 59.3971ZM55.1543 24.0417L57.9827 26.8702L62.2253 22.6275L59.3969 19.7991L55.1543 24.0417ZM39.0237 63.0655L39.0223 68.9868L43.0019 68.9868L42.9991 63.067L39.0237 63.0655ZM63.0654 39.0239V43.0007L68.9867 43.0021V39.0225L63.0654 39.0239ZM53.74 59.3971L59.3969 53.7402L62.2253 56.5686L56.5685 62.2255L53.74 59.3971Z" fill="#E69B2A"/>
</g>
<defs>
<clipPath id="clip0_222_4755">
<rect width="64" height="64" fill="white" transform="translate(0 45.2549) rotate(-45)"/>
</clipPath>
</defs>
</svg>
