<svg width="60" height="60" viewBox="0 0 60 60" fill="none" xmlns="http://www.w3.org/2000/svg">
<g filter="url(#filter0_d_18_12115)">
<rect x="2" y="1" width="56" height="56" rx="8" fill="white" shape-rendering="crispEdges"/>
<path d="M28.5 33.4593C27.98 33.4016 27.4685 33.2833 26.976 33.1068C26.991 32.7528 27 32.3838 27 31.9998V31.4943C27.465 31.7163 27.9705 31.8708 28.5 31.9473V28.2498C28.5 27.653 28.7371 27.0808 29.159 26.6588C29.581 26.2368 30.1533 25.9998 30.75 25.9998H34.4475C34.3279 25.1686 34.0106 24.3783 33.5224 23.6951C33.0341 23.0119 32.3891 22.4558 31.6414 22.0734C30.8938 21.6911 30.0654 21.4937 29.2256 21.4977C28.3859 21.5018 27.5594 21.7072 26.8155 22.0968C26.6968 21.6062 26.5014 21.1374 26.2365 20.7078C27.2089 20.2224 28.2841 19.979 29.3708 19.9983C30.4574 20.0176 31.5233 20.299 32.4779 20.8185C33.4325 21.3381 34.2475 22.0804 34.8536 22.9825C35.4598 23.8846 35.8392 24.9197 35.9595 25.9998H38.25C38.8467 25.9998 39.419 26.2368 39.841 26.6588C40.2629 27.0808 40.5 27.653 40.5 28.2498V35.7498C40.5 36.3465 40.2629 36.9188 39.841 37.3408C39.419 37.7627 38.8467 37.9998 38.25 37.9998H30.75C30.1533 37.9998 29.581 37.7627 29.159 37.3408C28.7371 36.9188 28.5 36.3465 28.5 35.7498V33.4593ZM35.9595 27.4998C35.7891 29.0217 35.1064 30.4405 34.0235 31.5233C32.9407 32.6062 31.5219 33.2889 30 33.4593V35.7498C30 35.9487 30.079 36.1395 30.2197 36.2801C30.3603 36.4208 30.5511 36.4998 30.75 36.4998H38.25C38.4489 36.4998 38.6397 36.4208 38.7803 36.2801C38.921 36.1395 39 35.9487 39 35.7498V28.2498C39 28.0509 38.921 27.8601 38.7803 27.7195C38.6397 27.5788 38.4489 27.4998 38.25 27.4998H35.9595ZM34.4475 27.4998H30.75C30.5511 27.4998 30.3603 27.5788 30.2197 27.7195C30.079 27.8601 30 28.0509 30 28.2498V31.9473C31.122 31.7851 32.1614 31.2643 32.963 30.4627C33.7646 29.6612 34.2853 28.6217 34.4475 27.4998ZM25.1925 28.3413C25.035 27.7623 24.78 27.1818 24.342 26.7363C25.05 26.0658 25.5 24.9978 25.5 23.7498C25.5 22.7043 25.2885 21.9858 24.906 21.4113C24.7363 21.1642 24.5401 20.9363 24.321 20.7318C24.237 20.6507 24.152 20.5707 24.066 20.4918C23.9745 20.4063 23.8905 20.3283 23.781 20.2188C23.556 19.9938 23.5305 19.8138 23.5305 19.7193C23.5307 19.6668 23.5394 19.6146 23.556 19.5648C23.6246 19.4165 23.6428 19.2498 23.608 19.0902C23.5732 18.9305 23.4872 18.7866 23.3631 18.6803C23.239 18.5741 23.0836 18.5112 22.9205 18.5014C22.7574 18.4915 22.5955 18.5352 22.4595 18.6258L22.4565 18.6273L22.452 18.6303L22.4385 18.6393L22.3935 18.6693C22.1685 18.8298 21.9517 19.0015 21.744 19.1838C21.369 19.5153 20.88 20.0058 20.5335 20.5908C20.231 21.0758 19.9883 21.5955 19.8105 22.1388C19.6305 22.6773 19.5 23.2608 19.5 23.7498C19.5 24.9978 19.95 26.0643 20.658 26.7378C20.22 27.1818 19.965 27.7623 19.8075 28.3428C19.5 29.4708 19.5 30.8658 19.5 31.9443V31.9998C19.5 35.0868 20.0775 36.9198 20.7315 38.0103C21.06 38.5563 21.402 38.9088 21.6885 39.1308C21.8412 39.2499 22.0073 39.3505 22.1835 39.4308C22.2854 39.468 22.3919 39.4912 22.5 39.4998C22.626 39.4998 22.8165 39.4308 22.8165 39.4308C22.9927 39.3505 23.1588 39.2499 23.3115 39.1308C23.5965 38.9088 23.9415 38.5563 24.2685 38.0103C24.9225 36.9213 25.5 35.0868 25.5 31.9998V31.9458C25.5 30.8658 25.5 29.4723 25.1925 28.3413ZM21.7305 27.7863C21.9 27.6153 22.1265 27.4998 22.5 27.4998C22.875 27.4998 23.1 27.6168 23.2695 27.7848C23.4585 27.9753 23.622 28.2843 23.745 28.7358C23.994 29.6523 24 30.8553 24 31.9998C24 34.9128 23.4525 36.4548 22.9815 37.2393C22.8015 37.5393 22.632 37.7328 22.5 37.8543C22.3114 37.6729 22.1493 37.4659 22.0185 37.2393C21.5475 36.4533 21 34.9128 21 31.9998C21 30.8553 21.006 29.6523 21.255 28.7358C21.378 28.2858 21.5415 27.9768 21.7305 27.7863ZM22.5 25.9998C21.9225 25.9998 21 25.3578 21 23.7498C21 23.4903 21.078 23.0793 21.234 22.6143C21.3762 22.1753 21.5722 21.7556 21.8175 21.3648C21.948 21.1443 22.1175 20.9298 22.3005 20.7333C22.404 20.9163 22.5405 21.1008 22.7205 21.2808C22.83 21.3903 22.9725 21.5223 23.094 21.6363L23.28 21.8103C23.4375 21.9633 23.559 22.0968 23.6565 22.2453C23.8365 22.5138 24 22.9203 24 23.7498C24 25.3578 23.0775 25.9998 22.5 25.9998Z" fill="#4D61F4"/>
</g>
<defs>
<filter id="filter0_d_18_12115" x="0" y="0" width="60" height="60" filterUnits="userSpaceOnUse" color-interpolation-filters="sRGB">
<feFlood flood-opacity="0" result="BackgroundImageFix"/>
<feColorMatrix in="SourceAlpha" type="matrix" values="0 0 0 0 0 0 0 0 0 0 0 0 0 0 0 0 0 0 127 0" result="hardAlpha"/>
<feOffset dy="1"/>
<feGaussianBlur stdDeviation="1"/>
<feComposite in2="hardAlpha" operator="out"/>
<feColorMatrix type="matrix" values="0 0 0 0 0 0 0 0 0 0 0 0 0 0 0 0 0 0 0.05 0"/>
<feBlend mode="normal" in2="BackgroundImageFix" result="effect1_dropShadow_18_12115"/>
<feBlend mode="normal" in="SourceGraphic" in2="effect1_dropShadow_18_12115" result="shape"/>
</filter>
</defs>
</svg>
