<svg width="26" height="26" viewBox="0 0 26 26" fill="none" xmlns="http://www.w3.org/2000/svg">
<g id="Group">
<g id="Group 3">
<path id="Vector" d="M22.3333 15.6667H3.66667C2.19391 15.6667 1 16.8607 1 18.3334V22.3334C1 23.8062 2.19391 25.0001 3.66667 25.0001H22.3333C23.8061 25.0001 25 23.8062 25 22.3334V18.3334C25 16.8607 23.8061 15.6667 22.3333 15.6667Z" stroke="#4D61F4" stroke-width="2"/>
<path id="Vector_2" d="M10.3333 1.66675H3.66667C2.95942 1.66675 2.28115 1.9477 1.78105 2.4478C1.28095 2.94789 1 3.62617 1 4.33341V8.33341C1 9.04066 1.28095 9.71893 1.78105 10.219C2.28115 10.7191 2.95942 11.0001 3.66667 11.0001H10.3333" stroke="#4D61F4" stroke-width="2" stroke-linecap="round"/>
<path id="Vector_3" d="M19.6663 11.6667C22.6119 11.6667 24.9997 9.27885 24.9997 6.33333C24.9997 3.38781 22.6119 1 19.6663 1C16.7208 1 14.333 3.38781 14.333 6.33333C14.333 9.27885 16.7208 11.6667 19.6663 11.6667Z" stroke="#4D61F4" stroke-width="2"/>
<path id="Vector_4" d="M19.667 8.33325C20.7716 8.33325 21.667 7.43782 21.667 6.33325C21.667 5.22868 20.7716 4.33325 19.667 4.33325C18.5624 4.33325 17.667 5.22868 17.667 6.33325C17.667 7.43782 18.5624 8.33325 19.667 8.33325Z" fill="#4D61F4"/>
</g>
</g>
</svg>
