<svg width="151" height="32" viewBox="0 0 151 32" fill="none" xmlns="http://www.w3.org/2000/svg">
<path d="M8.22854 1.79563C10.228 1.79563 11.9198 2.13619 13.3041 2.81732C14.6883 3.47648 15.743 4.42128 16.468 5.65171C17.1931 6.86017 17.5557 8.29934 17.5557 9.96921C17.5557 10.958 17.4019 11.9577 17.0942 12.9684C16.8086 13.9571 16.3362 14.858 15.6771 15.6709C15.0399 16.4839 14.172 17.1431 13.0734 17.6484C11.9967 18.1318 10.6674 18.3735 9.08545 18.3735H5.65782V26.0527H0.878906V1.79563H8.22854ZM9.05249 13.7264C9.77757 13.7264 10.3818 13.6056 10.8652 13.3639C11.3486 13.1002 11.7221 12.7816 11.9858 12.4081C12.2714 12.0126 12.4691 11.6061 12.579 11.1887C12.7108 10.7712 12.7767 10.4087 12.7767 10.101C12.7767 9.85935 12.7328 9.54076 12.6449 9.14526C12.579 8.72779 12.4252 8.31033 12.1835 7.89286C11.9418 7.47539 11.5683 7.12384 11.0629 6.8382C10.5795 6.55257 9.92039 6.40975 9.08545 6.40975H5.65782V13.7264H9.05249Z" fill="black"/>
<path d="M29.1813 1.79563C30.6974 1.79563 32.0487 1.99337 33.2352 2.38887C34.4217 2.76239 35.4104 3.31169 36.2014 4.03677C37.0144 4.73987 37.6296 5.59678 38.047 6.60749C38.4645 7.59624 38.6732 8.71681 38.6732 9.96921C38.6732 10.958 38.5194 11.9467 38.2118 12.9354C37.9262 13.9242 37.4428 14.825 36.7617 15.638C36.1025 16.451 35.2236 17.1101 34.125 17.6155C33.0264 18.0989 31.6642 18.3405 30.0382 18.3405H26.6106V26.0527H21.8317V1.79563H29.1813ZM30.0053 13.7264C30.7304 13.7264 31.3346 13.6056 31.818 13.3639C32.3014 13.1222 32.6749 12.8146 32.9385 12.4411C33.2242 12.0675 33.4219 11.683 33.5318 11.2875C33.6636 10.8701 33.7295 10.4856 33.7295 10.134C33.7295 9.87034 33.6856 9.54076 33.5977 9.14526C33.5318 8.72779 33.378 8.31033 33.1363 7.89286C32.8946 7.47539 32.5211 7.12384 32.0157 6.8382C31.5323 6.55257 30.8732 6.40975 30.0382 6.40975H26.6106V13.7264H30.0053ZM34.4876 16.6926L40.4859 26.0527H34.916L28.7858 16.8245L34.4876 16.6926Z" fill="black"/>
<path d="M42.106 13.9571C42.106 12.2873 42.4246 10.7053 43.0618 9.21118C43.699 7.71708 44.5779 6.39876 45.6984 5.25622C46.841 4.0917 48.1593 3.17986 49.6534 2.5207C51.1475 1.86154 52.7515 1.53196 54.4653 1.53196C56.1571 1.53196 57.7501 1.86154 59.2442 2.5207C60.7383 3.17986 62.0566 4.0917 63.1992 5.25622C64.3637 6.39876 65.2645 7.71708 65.9017 9.21118C66.5609 10.7053 66.8904 12.2873 66.8904 13.9571C66.8904 15.6709 66.5609 17.2749 65.9017 18.769C65.2645 20.2631 64.3637 21.5814 63.1992 22.724C62.0566 23.8445 60.7383 24.7234 59.2442 25.3606C57.7501 25.9978 56.1571 26.3164 54.4653 26.3164C52.7515 26.3164 51.1475 25.9978 49.6534 25.3606C48.1593 24.7234 46.841 23.8445 45.6984 22.724C44.5779 21.5814 43.699 20.2631 43.0618 18.769C42.4246 17.2749 42.106 15.6709 42.106 13.9571ZM47.0497 13.9571C47.0497 15.0338 47.2365 16.0445 47.61 16.9893C48.0055 17.9121 48.5438 18.736 49.225 19.4611C49.9281 20.1642 50.73 20.7135 51.6309 21.109C52.5537 21.5045 53.5534 21.7023 54.6301 21.7023C55.6628 21.7023 56.6185 21.5045 57.4974 21.109C58.3983 20.7135 59.1783 20.1642 59.8374 19.4611C60.4966 18.736 61.0129 17.9121 61.3865 16.9893C61.76 16.0445 61.9467 15.0338 61.9467 13.9571C61.9467 12.8585 61.749 11.8368 61.3535 10.892C60.98 9.94724 60.4526 9.12329 59.7715 8.42019C59.1124 7.69511 58.3323 7.13482 57.4315 6.73933C56.5306 6.34383 55.5529 6.14608 54.4982 6.14608C53.4436 6.14608 52.4658 6.34383 51.565 6.73933C50.6641 7.13482 49.8731 7.69511 49.192 8.42019C48.5109 9.12329 47.9835 9.94724 47.61 10.892C47.2365 11.8368 47.0497 12.8585 47.0497 13.9571Z" fill="black"/>
<path d="M78.5761 20.9442C78.5761 23.0535 78.1586 24.8552 77.3237 26.3493C76.4888 27.8434 75.3243 28.986 73.8302 29.777C72.358 30.5899 70.6442 31.0294 68.6887 31.0953V26.4482C70.1828 26.3603 71.4023 25.8989 72.347 25.064C73.2918 24.229 73.7642 22.8228 73.7642 20.8454V1.79563H78.5761V20.9442Z" fill="black"/>
<path d="M84.851 1.79563H101.396V6.40975H89.6299V11.5842H100.045V16.1983H89.6299V21.4386H101.857V26.0527H84.851V1.79563Z" fill="black"/>
<path d="M104.824 1.79563H110.921L126.741 26.0527H120.578L104.824 1.79563ZM104.494 26.0527L113.129 12.474L115.371 17.2859L110.427 26.0527H104.494ZM115.7 10.6943L120.71 1.79563H126.51L118.172 14.814L115.7 10.6943Z" fill="black"/>
<path d="M127.948 26.0527L138.89 0.839844H139.153L150.095 26.0527H144.559L137.571 8.32131L141.032 5.94834L132.661 26.0527H127.948ZM135.429 17.2859H142.713L144.394 21.3068H133.946L135.429 17.2859Z" fill="black"/>
</svg>
