<svg width="141" height="57" viewBox="0 0 141 57" fill="none" xmlns="http://www.w3.org/2000/svg">
<path d="M50.5195 38.0182H54.6781V30.8891H56.4862L60.9032 38.0182H65.3459L60.4641 30.1659C62.6338 29.5202 64.2611 28.0478 64.2611 25.2582V25.1549C64.2611 21.3321 61.4973 19.5498 57.132 19.5498H50.5195V38.0182ZM54.6781 28.0478V22.7527H57.0287C59.0434 22.7527 60.18 23.3985 60.18 25.284V25.3874C60.18 27.1697 59.121 28.0478 57.0287 28.0478H54.6781Z" fill="black"/>
<path d="M72.4833 38.3023C76.1769 38.3023 78.5016 36.6751 78.9407 33.7562H75.402C75.1695 34.8928 74.3172 35.6419 72.5866 35.6419C70.546 35.6419 69.332 34.3504 69.2287 32.1032H78.9666V31.07C78.9666 26.2397 75.867 24.1992 72.3799 24.1992C68.4538 24.1992 65.4316 26.963 65.4316 31.2249V31.4315C65.4316 35.7452 68.4021 38.3023 72.4833 38.3023ZM69.2803 29.8043C69.5644 27.8929 70.701 26.7822 72.3799 26.7822C74.1622 26.7822 75.1954 27.7637 75.3246 29.8043H69.2803Z" fill="black"/>
<path d="M80.7471 38.0184H84.4666V18.3877H80.7471V38.0184Z" fill="black"/>
<path d="M91.6025 38.3024C93.8241 38.3024 95.1926 37.2692 95.89 35.9003V38.0183H99.6096V24.5093H95.89V32.4391C95.89 34.428 94.6501 35.4095 93.0751 35.4095C91.4739 35.4095 90.724 34.5313 90.724 32.6974V24.5093H87.0049V33.214C87.0049 36.7526 88.9679 38.3024 91.6025 38.3024Z" fill="black"/>
<path d="M102.148 38.0182H105.894V30.0368C105.894 28.2029 107.056 27.2729 108.503 27.2729C109.82 27.2729 110.621 28.0478 110.621 29.7785V38.0182H114.341V30.0368C114.341 28.2029 115.503 27.2729 116.949 27.2729C118.292 27.2729 119.067 28.0478 119.067 29.7785V38.0182H122.787V29.3652C122.787 25.7748 120.85 24.1992 118.344 24.1992C116.639 24.1992 114.883 24.9224 113.798 26.5497C113.152 24.9483 111.809 24.1992 110.027 24.1992C108.012 24.1992 106.565 25.3099 105.894 26.5755V24.5091H102.148V38.0182Z" fill="black"/>
<path d="M131.436 38.3023C135.131 38.3023 137.456 36.6751 137.894 33.7562H134.355C134.123 34.8928 133.27 35.6419 131.54 35.6419C129.499 35.6419 128.286 34.3504 128.182 32.1032H137.92V31.07C137.92 26.2397 134.82 24.1992 131.333 24.1992C127.407 24.1992 124.385 26.963 124.385 31.2249V31.4315C124.385 35.7452 127.355 38.3023 131.436 38.3023ZM128.234 29.8043C128.518 27.8929 129.655 26.7822 131.333 26.7822C133.116 26.7822 134.149 27.7637 134.278 29.8043H128.234Z" fill="black"/>
<path fill-rule="evenodd" clip-rule="evenodd" d="M36.2073 20.6547L35.9562 20.2063C35.6323 19.6639 35.1755 19.2132 34.6289 18.8968L22.5928 11.955C22.0478 11.6389 21.4292 11.4718 20.7991 11.4707H20.2789C19.6488 11.4718 19.0302 11.6389 18.4851 11.955L6.44916 18.9148C5.90561 19.2291 5.4541 19.6807 5.13973 20.2242L4.88861 20.6726C4.57245 21.2176 4.40542 21.8363 4.4043 22.4663V36.3679C4.40542 36.998 4.57245 37.6166 4.88861 38.1616L5.13973 38.6101C5.46222 39.1473 5.91191 39.597 6.44916 39.9195L18.5031 46.8612C19.0454 47.1839 19.6659 47.3515 20.2968 47.3455H20.7991C21.4292 47.3444 22.0478 47.1774 22.5928 46.8612L34.6289 39.9016C35.1778 39.5943 35.631 39.1411 35.9382 38.5921L36.2073 38.1437C36.5197 37.5971 36.6865 36.9794 36.6916 36.3499V22.4484C36.6906 21.8184 36.5235 21.1997 36.2073 20.6547ZM20.2789 15.0581H20.7991L31.3105 21.121L20.548 27.3273L9.78555 21.121L20.2789 15.0581ZM22.3417 42.8613L32.8351 36.7985L33.1041 36.35V24.2244L22.3417 30.4486V42.8613Z" fill="black"/>
</svg>
