<svg width="156" height="36" viewBox="0 0 156 36" fill="none" xmlns="http://www.w3.org/2000/svg">
<path fill-rule="evenodd" clip-rule="evenodd" d="M11.4115 6.16846C10.9087 6.16862 10.4149 6.30263 9.98007 6.55694C9.54527 6.81123 9.18492 7.17675 8.93554 7.6165L3.82966 16.6165C3.58296 17.0508 3.45315 17.5425 3.45312 18.043V24.5046C3.45315 24.9503 3.55619 25.3901 3.75405 25.7889L5.34857 29.001C5.58541 29.4784 5.94959 29.8799 6.40023 30.1605C6.8509 30.4411 7.37028 30.5898 7.9001 30.5898H9.15804C9.91456 30.5898 10.6401 30.2871 11.175 29.7482C12.0499 28.8671 13.0135 27.7167 14.2507 27.7167H21.1801C22.4173 27.7167 23.3809 28.8671 24.2559 29.7482C24.7907 30.2871 25.5162 30.5898 26.2727 30.5898H27.5307C28.0606 30.5898 28.58 30.4411 29.0307 30.1605C29.4813 29.8799 29.8455 29.4784 30.0823 29.001L31.6767 25.7889C31.8749 25.3908 31.9777 24.9498 31.9777 24.5046V18.043C31.9777 17.5425 31.8478 17.0508 31.6012 16.6165L26.4953 7.6165C26.2459 7.17675 25.8855 6.81123 25.4507 6.55694C25.0159 6.30263 24.5221 6.16862 24.0192 6.16846H11.4115ZM17.7154 17.6608C15.4377 17.6608 13.334 17.1681 11.2218 16.3751C10.8833 16.2048 10.4914 16.1769 10.1325 16.2976C9.77351 16.4183 9.47687 16.6777 9.30778 17.0187C9.13871 17.3597 9.11104 17.7544 9.23087 18.1159C9.35068 18.4774 9.6082 18.7762 9.94673 18.9465C10.6513 19.2985 14.2354 20.5339 17.7154 20.5339C20.3596 20.5339 23.0894 20.1403 25.4812 18.948C25.8181 18.7755 26.0741 18.4765 26.1941 18.1156C26.3142 17.7547 26.2885 17.3608 26.123 17.0187C26.0393 16.8498 25.9235 16.6992 25.7819 16.5754C25.6404 16.4516 25.4761 16.3572 25.2984 16.2974C25.1208 16.2376 24.9329 16.2137 24.7461 16.2271C24.5592 16.2404 24.3766 16.2907 24.209 16.3751C22.2622 17.3548 19.849 17.6608 17.7154 17.6608Z" fill="#6E4BCA"/>
<path d="M39.456 30.2765C39.2259 30.2765 39.0306 30.1955 38.8695 30.0332C38.7084 29.8709 38.6279 29.6742 38.6279 29.4424V6.81793C38.6279 6.56308 38.7084 6.35456 38.8695 6.19237C39.0306 6.03018 39.2259 5.9491 39.456 5.9491H48.3925C51.1759 5.9491 53.3725 6.59783 54.9827 7.89529C56.593 9.19274 57.398 11.081 57.398 13.5601C57.398 15.2746 56.9725 16.6995 56.1213 17.8348C55.2932 18.97 54.1777 19.7925 52.7745 20.3022L57.812 29.1644C57.881 29.3034 57.9155 29.4309 57.9155 29.5466C57.9155 29.7552 57.8351 29.9289 57.674 30.0679C57.536 30.207 57.3749 30.2765 57.1909 30.2765H54.0511C53.6601 30.2765 53.361 30.1722 53.154 29.9637C52.947 29.7552 52.7859 29.5466 52.671 29.3381L48.22 21.1016H43.4239V29.4424C43.4239 29.6742 43.3435 29.8709 43.1824 30.0332C43.0444 30.1955 42.8488 30.2765 42.5959 30.2765H39.456ZM43.4239 17.1744H48.289C49.6922 17.1744 50.7387 16.8617 51.4288 16.2361C52.1189 15.5874 52.4639 14.6838 52.4639 13.5253C52.4639 12.3669 52.1189 11.4633 51.4288 10.8146C50.7618 10.1427 49.7151 9.80672 48.289 9.80672H43.4239V17.1744ZM61.9818 30.2765C61.7517 30.2765 61.5564 30.1955 61.3953 30.0332C61.2342 29.8709 61.1537 29.6742 61.1537 29.4424V6.78318C61.1537 6.55148 61.2342 6.35456 61.3953 6.19237C61.5564 6.03018 61.7517 5.9491 61.9818 5.9491H65.2252C65.4781 5.9491 65.6737 6.03018 65.8118 6.19237C65.9729 6.35456 66.0533 6.55148 66.0533 6.78318V29.4424C66.0533 29.6742 65.9729 29.8709 65.8118 30.0332C65.6737 30.1955 65.4781 30.2765 65.2252 30.2765H61.9818ZM71.6026 30.2765C71.3725 30.2765 71.1769 30.1955 71.016 30.0332C70.8549 29.8709 70.7745 29.6742 70.7745 29.4424V6.81793C70.7745 6.56308 70.8549 6.35456 71.016 6.19237C71.1769 6.03018 71.3725 5.9491 71.6026 5.9491H80.0215C82.3447 5.9491 84.2538 6.30821 85.7491 7.02645C87.2673 7.7447 88.4059 8.81045 89.165 10.2238C89.9469 11.6371 90.3495 13.3631 90.3726 15.402C90.4185 16.4214 90.4416 17.325 90.4416 18.1128C90.4416 18.9005 90.4185 19.7925 90.3726 20.7888C90.3264 22.9435 89.9355 24.7274 89.1995 26.1408C88.4632 27.531 87.3477 28.5736 85.8526 29.2686C84.3804 29.9404 82.4941 30.2765 80.194 30.2765H71.6026ZM75.5705 26.2798H80.0215C81.3095 26.2798 82.3561 26.0946 83.1613 25.7238C83.9663 25.353 84.5529 24.7622 84.921 23.9514C85.312 23.1173 85.519 22.0283 85.5421 20.6845C85.5649 19.9895 85.5766 19.3871 85.5766 18.8774C85.5994 18.3445 85.5994 17.8232 85.5766 17.3135C85.5766 16.7806 85.5649 16.1782 85.5421 15.5063C85.4959 13.6064 85.0245 12.2047 84.1274 11.3011C83.2303 10.3975 81.804 9.94574 79.849 9.94574H75.5705V26.2798ZM103.73 30.624C101.614 30.624 99.8077 30.2532 98.3127 29.5119C96.8404 28.7706 95.6904 27.7047 94.8623 26.3146C94.0573 24.9012 93.6202 23.2215 93.5511 21.2753C93.5281 20.2791 93.5166 19.2133 93.5166 18.078C93.5166 16.9196 93.5281 15.8306 93.5511 14.8112C93.6202 12.8882 94.0573 11.2432 94.8623 9.87623C95.6904 8.50927 96.8521 7.45507 98.3472 6.71367C99.8653 5.97227 101.66 5.60156 103.73 5.60156C105.409 5.60156 106.881 5.83326 108.146 6.29663C109.411 6.73685 110.458 7.31605 111.286 8.0343C112.137 8.72937 112.77 9.48237 113.184 10.2933C113.621 11.1042 113.851 11.8572 113.874 12.5522C113.897 12.7608 113.839 12.9345 113.701 13.0735C113.563 13.2126 113.379 13.2821 113.149 13.2821H109.595C109.365 13.2821 109.193 13.2357 109.078 13.143C108.963 13.0504 108.859 12.9114 108.767 12.726C108.583 12.2395 108.296 11.7645 107.905 11.3011C107.514 10.8146 106.985 10.4091 106.318 10.0847C105.651 9.76039 104.788 9.5982 103.73 9.5982C102.166 9.5982 100.912 10.0152 99.9688 10.8493C99.0487 11.6834 98.5542 13.062 98.4852 14.985C98.4162 17.0007 98.4162 19.0395 98.4852 21.1016C98.5542 23.0709 99.0603 24.4842 100.003 25.3415C100.969 26.1988 102.235 26.6274 103.799 26.6274C104.834 26.6274 105.754 26.4421 106.559 26.0713C107.387 25.7005 108.031 25.1215 108.491 24.3336C108.974 23.5459 109.216 22.538 109.216 21.3101V20.2327H105.006C104.776 20.2327 104.581 20.1517 104.42 19.9895C104.259 19.8273 104.178 19.6188 104.178 19.3639V17.522C104.178 17.2671 104.259 17.0586 104.42 16.8964C104.581 16.7342 104.776 16.6531 105.006 16.6531H113.253C113.506 16.6531 113.701 16.7342 113.839 16.8964C114 17.0586 114.081 17.2671 114.081 17.522V21.1711C114.081 23.1173 113.655 24.7969 112.804 26.2103C111.976 27.6237 110.78 28.7126 109.216 29.4771C107.675 30.2417 105.846 30.624 103.73 30.624ZM118.642 30.2765C118.412 30.2765 118.217 30.1955 118.056 30.0332C117.894 29.8709 117.814 29.6742 117.814 29.4424V6.78318C117.814 6.55148 117.894 6.35456 118.056 6.19237C118.217 6.03018 118.412 5.9491 118.642 5.9491H121.851C122.081 5.9491 122.276 6.03018 122.438 6.19237C122.599 6.35456 122.679 6.55148 122.679 6.78318V26.1408H133.617C133.87 26.1408 134.077 26.2218 134.238 26.3841C134.399 26.5464 134.479 26.7549 134.479 27.0096V29.4424C134.479 29.6742 134.399 29.8709 134.238 30.0332C134.077 30.1955 133.87 30.2765 133.617 30.2765H118.642ZM137.967 30.2765C137.737 30.2765 137.541 30.1955 137.38 30.0332C137.219 29.8709 137.139 29.6742 137.139 29.4424V6.81793C137.139 6.56308 137.219 6.35456 137.38 6.19237C137.541 6.03018 137.737 5.9491 137.967 5.9491H153.149C153.402 5.9491 153.609 6.03018 153.77 6.19237C153.931 6.35456 154.011 6.56308 154.011 6.81793V9.11165C154.011 9.34335 153.931 9.54027 153.77 9.70246C153.609 9.86465 153.402 9.94574 153.149 9.94574H141.797V16.0971H152.39C152.643 16.0971 152.85 16.1782 153.011 16.3404C153.172 16.4794 153.252 16.6763 153.252 16.9312V19.0859C153.252 19.3407 153.172 19.5492 153.011 19.7114C152.85 19.8505 152.643 19.92 152.39 19.92H141.797V26.2798H153.425C153.678 26.2798 153.885 26.3608 154.046 26.5231C154.207 26.6854 154.287 26.8939 154.287 27.1487V29.4424C154.287 29.6742 154.207 29.8709 154.046 30.0332C153.885 30.1955 153.678 30.2765 153.425 30.2765H137.967Z" fill="#6E4BCA"/>
</svg>
