<svg xmlns="http://www.w3.org/2000/svg" width="48" height="49" viewBox="0 0 48 49" fill="none">
  <path fillRule="evenodd" clipRule="evenodd" d="M14.7799 8.18726C14.0989 8.18748 13.43 8.3677 12.841 8.70968C12.2521 9.05166 11.764 9.54323 11.4262 10.1346L4.51002 22.2379C4.17585 22.822 4.00004 23.4833 4 24.1562V32.8459C4.00004 33.4454 4.1396 34.0367 4.40763 34.573L6.56748 38.8927C6.88828 39.5347 7.38156 40.0746 7.992 40.452C8.60245 40.8294 9.30594 41.0293 10.0236 41.0294H11.7276C12.7523 41.0294 13.7351 40.6223 14.4597 39.8977C15.6447 38.7126 16.9499 37.1656 18.6259 37.1656H28.0119C29.6878 37.1656 30.9931 38.7126 32.1781 39.8977C32.9027 40.6223 33.8855 41.0294 34.9102 41.0294H36.6141C37.3318 41.0293 38.0353 40.8294 38.6458 40.452C39.2562 40.0746 39.7495 39.5347 40.0703 38.8927L42.2301 34.573C42.4987 34.0379 42.6378 33.4448 42.6378 32.8459V24.1562C42.6377 23.4833 42.4619 22.822 42.1278 22.2379L35.2116 10.1346C34.8738 9.54323 34.3857 9.05166 33.7967 8.70968C33.2078 8.3677 32.5389 8.18748 31.8578 8.18726H14.7799ZM23.3189 23.6424C20.2337 23.6424 17.3841 22.9797 14.523 21.9133C14.0644 21.6843 13.5337 21.6468 13.0475 21.8091C12.5612 21.9714 12.1594 22.3202 11.9304 22.7788C11.7014 23.2374 11.6639 23.7682 11.8262 24.2544C11.9885 24.7406 12.3373 25.1424 12.7959 25.3714C13.7502 25.8447 18.6051 27.5061 23.3189 27.5061C26.9006 27.5061 30.5982 26.9768 33.838 25.3733C34.2943 25.1413 34.6411 24.7393 34.8037 24.254C34.9663 23.7687 34.9317 23.2389 34.7074 22.7788C34.594 22.5517 34.4371 22.3491 34.2454 22.1827C34.0538 22.0162 33.8312 21.8892 33.5904 21.8088C33.3497 21.7284 33.0954 21.6963 32.8422 21.7142C32.589 21.7322 32.3418 21.7998 32.1148 21.9133C29.4777 23.2309 26.209 23.6424 23.3189 23.6424Z" fill="#6E4BCA"/>
</svg>